<svg xmlns="http://www.w3.org/2000/svg" width="173" height="181" fill="none"><path fill="#fff" d="M0 94 86.5 7.5 173 94l-86.5 86.5z"/><path fill="#000" d="m115.9 54.3-14.4-4.1-1.1 5.3-20.2 95.8-1 5.3 1.8-5.1 33-92 1.9-5.2ZM64.7 101.6l-.7-3.3-13.8-58.6-.7-3.2-14.2 5 1.5 3 26.4 54 1.5 3Z"/><path fill="#000" d="m94.5 100.8-3.8 8.2 2.8 1 51.7 20.2 2.9 1.2-2.7-1.6-48.2-27.4-2.7-1.6ZM35.3 41.6l-6-15 80 26-.1 12.2-73.9-23.2Z"/><circle cx="80.7" cy="151.4" r="5.6" fill="#000" stroke="#000" transform="rotate(-20 80.7 151.4)"/><circle cx="143" cy="129.4" r="5.6" fill="#000" stroke="#000" transform="rotate(-20 143 129.4)"/><path fill="#000" stroke="#000" d="M61.2 91.5A5.6 5.6 0 1 1 65 102a5.6 5.6 0 0 1-3.8-10.5Z"/></svg>