<svg xmlns="http://www.w3.org/2000/svg" width="129" height="163" fill="none"><path fill="#fff" d="m94 54.3-14.5-4.1-1.1 5.3-20.1 95.8-1.2 5.3 1.9-5.1 33-92 2-5.2ZM42.7 101.6l-.7-3.3-14.2-59.5-.8-3.3-14.1 5 1.5 3 26.8 55 1.5 3Z"/><path fill="#fff" d="m72.6 100.8-4 8.2 3 1 51.6 20.2 3 1.2-2.8-1.6-48.2-27.4-2.6-1.6Z"/><path fill="#fff" stroke="#fff" d="m13.4 41.6-6.1-15 80 26-.1 12.2-73.8-23.2Z"/><circle cx="58.7" cy="151.4" r="5.6" fill="#fff" stroke="#fff" transform="rotate(-20 58.7 151.4)"/><circle cx="121" cy="129.4" r="5.6" fill="#fff" stroke="#fff" transform="rotate(-20 121 129.4)"/><path fill="#fff" stroke="#fff" d="M39.2 91.5A5.6 5.6 0 1 1 43 102a5.6 5.6 0 0 1-3.8-10.5Z"/></svg>