<svg width="317" height="556" viewBox="0 0 317 556" fill="none" xmlns="http://www.w3.org/2000/svg">
<path d="M21 535L296 209.137L21 21V209.137M296 535L158.5 372.069" stroke="black" stroke-width="14" stroke-linecap="round"/>
<circle cx="21" cy="21" r="21" transform="matrix(1 0 0 -1 0 556)" fill="black"/>
<circle cx="34" cy="34" r="34" transform="matrix(1 0 0 -1 125 406)" fill="black"/>
<circle cx="21" cy="21" r="21" transform="matrix(1 0 0 -1 275 556)" fill="black"/>
<circle cx="21" cy="21" r="21" transform="matrix(1 0 0 -1 275 229)" fill="black"/>
<circle cx="21" cy="21" r="21" transform="matrix(1 0 0 -1 0 229)" fill="black"/>
<circle cx="21" cy="21" r="21" transform="matrix(1 0 0 -1 0 42)" fill="black"/>
</svg>
